<svg width="274" height="43" viewBox="0 0 274 43" fill="none" xmlns="http://www.w3.org/2000/svg">
<path d="M28.328 25.704C28.328 28.712 27.224 31.048 25.016 32.712C22.968 34.28 20.2 35.064 16.712 35.064H0.152V33.432C1.88 33.432 3.016 33.256 3.56 32.904C4.136 32.392 4.424 31.672 4.424 30.744V6.12C4.424 5.704 4.36 5.384 4.232 5.16C4.104 4.744 3.912 4.392 3.656 4.104C2.984 3.528 1.816 3.24 0.152 3.24V1.608H15.896C19.544 1.608 22.28 2.28 24.104 3.624C25.96 5 26.888 7 26.888 9.624C26.888 11.256 26.28 12.776 25.064 14.184C24.52 14.792 23.896 15.336 23.192 15.816C22.52 16.264 21.768 16.648 20.936 16.968C22.92 17.544 24.504 18.376 25.688 19.464C27.448 21.032 28.328 23.112 28.328 25.704ZM23.576 9.576C23.576 8.616 23.384 7.736 23 6.936C22.648 6.136 22.152 5.464 21.512 4.92C20.872 4.376 20.088 3.976 19.16 3.72C18.232 3.464 17.224 3.336 16.136 3.336H10.952C10.12 3.336 9.448 3.432 8.936 3.624C7.976 4.072 7.496 4.888 7.496 6.072V16.344H16.184C16.792 16.344 17.384 16.296 17.96 16.2C19.144 15.976 20.232 15.432 21.224 14.568C22.792 13.288 23.576 11.624 23.576 9.576ZM25.016 25.704C25.016 23.56 24.28 21.768 22.808 20.328C21.272 18.888 19.304 18.168 16.904 18.168H7.496V30.696C7.496 31.944 7.96 32.744 8.888 33.096C9.368 33.256 10.056 33.336 10.952 33.336H16.616C19.048 33.336 21.032 32.712 22.568 31.464C24.2 30.088 25.016 28.168 25.016 25.704ZM51.2975 29.304C51.4575 29.432 51.6175 29.56 51.7775 29.688C51.9695 29.816 52.1455 29.944 52.3055 30.072C51.5375 31.224 50.6895 32.184 49.7615 32.952C48.8335 33.72 47.8415 34.36 46.7855 34.872C45.3455 35.576 43.7935 35.928 42.1295 35.928C38.9615 35.928 36.3695 34.92 34.3535 32.904C32.2095 30.76 31.1375 27.864 31.1375 24.216C31.1375 20.696 32.1615 17.864 34.2095 15.72C36.2255 13.512 38.7855 12.408 41.8895 12.408C44.9935 12.408 47.4415 13.304 49.2335 15.096C51.1535 16.92 52.1135 19.56 52.1135 23.016C49.1375 23.112 46.2095 23.224 43.3295 23.352C40.4495 23.448 37.5055 23.544 34.4975 23.64C34.4975 23.768 34.4815 23.896 34.4495 24.024C34.4495 24.12 34.4495 24.232 34.4495 24.36C34.4495 25.704 34.6255 26.92 34.9775 28.008C35.3615 29.096 35.9055 30.072 36.6095 30.936C38.0815 32.856 40.1455 33.816 42.8015 33.816C44.2095 33.816 45.6815 33.448 47.2175 32.712C47.9215 32.296 48.6095 31.816 49.2815 31.272C49.9855 30.696 50.6575 30.04 51.2975 29.304ZM34.5935 21.816C36.9935 21.752 39.3615 21.672 41.6975 21.576C44.0335 21.48 46.4015 21.4 48.8015 21.336C48.7695 19.224 48.1135 17.528 46.8335 16.248C45.5215 14.84 43.8735 14.136 41.8895 14.136C39.9695 14.136 38.2895 14.904 36.8495 16.44C35.5055 17.848 34.7535 19.64 34.5935 21.816ZM68.1556 30.36C68.3156 30.488 68.4596 30.6 68.5876 30.696C68.7476 30.792 68.9076 30.888 69.0676 30.984C68.4916 32.328 67.7076 33.448 66.7156 34.344C65.5956 35.4 64.3796 35.928 63.0676 35.928C61.3396 35.928 60.0276 35.304 59.1316 34.056C58.8756 33.608 58.6676 33.096 58.5076 32.52C58.3476 31.944 58.2676 31.304 58.2676 30.6V14.712H54.5236V13.176C56.2516 13.176 57.5316 12.52 58.3636 11.208C59.2916 9.704 59.7556 7.56 59.7556 4.776H61.1956V12.84H67.4836V14.712H61.1956V30.936C61.1956 32.632 62.0916 33.48 63.8836 33.48C65.3236 33.48 66.7476 32.44 68.1556 30.36ZM84.6088 30.36C84.7688 30.488 84.9128 30.6 85.0408 30.696C85.2008 30.792 85.3608 30.888 85.5208 30.984C84.9448 32.328 84.1608 33.448 83.1688 34.344C82.0488 35.4 80.8328 35.928 79.5208 35.928C77.7928 35.928 76.4808 35.304 75.5848 34.056C75.3288 33.608 75.1208 33.096 74.9608 32.52C74.8008 31.944 74.7208 31.304 74.7208 30.6V14.712H70.9768V13.176C72.7048 13.176 73.9848 12.52 74.8168 11.208C75.7448 9.704 76.2088 7.56 76.2088 4.776H77.6488V12.84H83.9368V14.712H77.6488V30.936C77.6488 32.632 78.5448 33.48 80.3368 33.48C81.7768 33.48 83.2008 32.44 84.6088 30.36ZM107.782 29.304C107.942 29.432 108.102 29.56 108.262 29.688C108.454 29.816 108.63 29.944 108.79 30.072C108.022 31.224 107.174 32.184 106.246 32.952C105.318 33.72 104.326 34.36 103.27 34.872C101.83 35.576 100.278 35.928 98.6139 35.928C95.4459 35.928 92.8539 34.92 90.8379 32.904C88.6939 30.76 87.6219 27.864 87.6219 24.216C87.6219 20.696 88.6459 17.864 90.6939 15.72C92.7099 13.512 95.2699 12.408 98.3739 12.408C101.478 12.408 103.926 13.304 105.718 15.096C107.638 16.92 108.598 19.56 108.598 23.016C105.622 23.112 102.694 23.224 99.8139 23.352C96.9339 23.448 93.9899 23.544 90.9819 23.64C90.9819 23.768 90.9659 23.896 90.9339 24.024C90.9339 24.12 90.9339 24.232 90.9339 24.36C90.9339 25.704 91.1099 26.92 91.4619 28.008C91.8459 29.096 92.3899 30.072 93.0939 30.936C94.5659 32.856 96.6299 33.816 99.2859 33.816C100.694 33.816 102.166 33.448 103.702 32.712C104.406 32.296 105.094 31.816 105.766 31.272C106.47 30.696 107.142 30.04 107.782 29.304ZM91.0779 21.816C93.4779 21.752 95.8459 21.672 98.1819 21.576C100.518 21.48 102.886 21.4 105.286 21.336C105.254 19.224 104.598 17.528 103.318 16.248C102.006 14.84 100.358 14.136 98.3739 14.136C96.4539 14.136 94.7739 14.904 93.3339 16.44C91.9899 17.848 91.2379 19.64 91.0779 21.816ZM129.104 14.568C129.104 16.232 128.368 17.064 126.896 17.064C126.288 17.064 125.616 16.792 124.88 16.248C124.336 15.8 123.744 15.576 123.104 15.576C122.272 15.576 121.232 16.056 119.984 17.016C118.992 17.784 118.032 18.664 117.104 19.656V31.272C117.104 32.168 117.264 32.76 117.584 33.048C117.936 33.368 118.816 33.528 120.224 33.528V35.064H111.104V33.528C111.936 33.528 112.576 33.464 113.024 33.336C113.472 33.208 113.776 33.016 113.936 32.76C114.096 32.504 114.176 32.104 114.176 31.56V17.544C114.176 16.904 114.064 16.472 113.84 16.248C113.712 16.12 113.44 15.976 113.024 15.816C112.576 15.72 112.032 15.672 111.392 15.672C111.328 15.512 111.28 15.352 111.248 15.192C111.216 15.032 111.168 14.872 111.104 14.712C112.128 14.296 113.136 13.896 114.128 13.512C115.12 13.096 116.112 12.68 117.104 12.264V17.208C117.872 16.472 118.64 15.8 119.408 15.192C120.176 14.584 120.928 14.072 121.664 13.656C123.264 12.728 124.816 12.264 126.32 12.264C128.176 12.264 129.104 13.032 129.104 14.568ZM155.89 26.472C155.89 29.416 154.898 31.704 152.914 33.336C151.026 35.032 148.466 35.88 145.234 35.88C144.146 35.88 142.962 35.752 141.682 35.496C140.402 35.24 139.202 34.872 138.082 34.392C137.538 34.552 136.994 34.728 136.45 34.92C135.938 35.112 135.458 35.336 135.01 35.592C134.434 34.056 133.842 32.552 133.234 31.08C132.658 29.608 132.082 28.104 131.506 26.568C131.73 26.44 131.938 26.328 132.13 26.232C132.322 26.104 132.53 25.992 132.754 25.896C134.322 28.424 135.842 30.232 137.314 31.32C137.794 31.704 138.354 32.056 138.994 32.376C139.666 32.696 140.354 32.968 141.058 33.192C141.762 33.448 142.466 33.64 143.17 33.768C143.874 33.896 144.514 33.96 145.09 33.96C146.306 33.96 147.394 33.8 148.354 33.48C149.314 33.16 150.114 32.712 150.754 32.136C152.098 30.888 152.77 29.24 152.77 27.192C152.77 26.424 152.594 25.672 152.242 24.936C151.89 24.168 151.426 23.544 150.85 23.064C149.57 22.04 147.058 20.888 143.314 19.608C140.338 18.552 137.986 17.32 136.258 15.912C133.954 14.152 132.802 12.008 132.802 9.48C132.802 6.888 133.73 4.808 135.586 3.24C137.378 1.672 139.714 0.887999 142.594 0.887999C143.97 0.887999 145.314 1.08 146.626 1.464C146.978 1.592 147.314 1.72 147.634 1.848C147.986 1.976 148.306 2.104 148.594 2.232L151.474 1.272C152.05 2.744 152.626 4.2 153.202 5.64C153.778 7.08 154.354 8.536 154.93 10.008C154.578 10.168 154.226 10.344 153.874 10.536C152.53 8.232 150.994 6.408 149.266 5.064C147.186 3.528 144.946 2.76 142.546 2.76C141.714 2.76 140.946 2.888 140.242 3.144C139.538 3.368 138.898 3.672 138.322 4.056C137.522 4.6 136.898 5.288 136.45 6.12C136.002 6.952 135.778 7.928 135.778 9.048C135.778 10.872 136.722 12.392 138.61 13.608C139.57 14.184 140.498 14.68 141.394 15.096C142.29 15.48 143.442 15.896 144.85 16.344C146.802 16.984 148.45 17.64 149.794 18.312C151.138 18.984 152.21 19.64 153.01 20.28C154.93 21.816 155.89 23.88 155.89 26.472ZM180.903 23.976C180.903 27.56 179.895 30.408 177.879 32.52C175.991 34.44 173.687 35.4 170.967 35.4C168.247 35.4 166.151 34.76 164.679 33.48V38.28C164.679 39.112 164.903 39.72 165.351 40.104C165.895 40.52 166.695 40.728 167.751 40.728V42.312H158.631V40.728C159.911 40.728 160.775 40.52 161.223 40.104C161.543 39.784 161.703 39.176 161.703 38.28V17.592C161.703 17.432 161.671 17.192 161.607 16.872C161.575 16.616 161.479 16.408 161.319 16.248C160.999 15.928 160.167 15.768 158.823 15.768C158.791 15.608 158.759 15.432 158.727 15.24C158.727 15.048 158.711 14.872 158.679 14.712C159.703 14.36 160.711 14.008 161.703 13.656C162.695 13.272 163.687 12.904 164.679 12.552V14.472C166.343 13.192 168.487 12.552 171.111 12.552C173.959 12.552 176.279 13.544 178.071 15.528C179.959 17.704 180.903 20.52 180.903 23.976ZM177.687 24.024C177.687 21.24 176.967 18.984 175.527 17.256C174.119 15.464 172.295 14.568 170.055 14.568C167.815 14.568 166.023 15.288 164.679 16.728V31.08C166.023 32.616 167.815 33.384 170.055 33.384C172.167 33.384 173.943 32.52 175.383 30.792C176.919 28.968 177.687 26.712 177.687 24.024ZM206.859 35.064H197.356V33.48C198.668 33.48 199.596 33.304 200.14 32.952C200.524 32.632 200.716 32.056 200.716 31.224V19.272C200.716 16.392 199.164 14.952 196.06 14.952C193.852 14.952 191.58 15.88 189.243 17.736V31.224C189.243 32.056 189.452 32.632 189.868 32.952C190.412 33.304 191.308 33.48 192.556 33.48V35.064H183.148V33.48C184.364 33.48 185.244 33.304 185.788 32.952C186.14 32.6 186.316 32.024 186.316 31.224V6.696C186.316 5.8 186.156 5.208 185.836 4.92C185.484 4.6 184.636 4.44 183.292 4.44C183.26 4.28 183.228 4.136 183.196 4.008C183.196 3.848 183.18 3.688 183.148 3.528C184.172 3.112 185.18 2.712 186.172 2.328C187.196 1.912 188.22 1.496 189.243 1.08V15.672C191.996 13.496 194.636 12.408 197.164 12.408C199.276 12.408 200.892 12.952 202.012 14.04C203.1 15.16 203.644 16.744 203.644 18.792V31.224C203.644 32.088 203.82 32.664 204.172 32.952C204.812 33.304 205.708 33.48 206.859 33.48V35.064ZM228.86 29.304C229.02 29.432 229.18 29.56 229.34 29.688C229.532 29.816 229.708 29.944 229.868 30.072C229.1 31.224 228.252 32.184 227.324 32.952C226.396 33.72 225.404 34.36 224.348 34.872C222.908 35.576 221.356 35.928 219.692 35.928C216.524 35.928 213.932 34.92 211.916 32.904C209.772 30.76 208.7 27.864 208.7 24.216C208.7 20.696 209.724 17.864 211.772 15.72C213.788 13.512 216.348 12.408 219.452 12.408C222.556 12.408 225.004 13.304 226.796 15.096C228.716 16.92 229.676 19.56 229.676 23.016C226.7 23.112 223.772 23.224 220.892 23.352C218.012 23.448 215.068 23.544 212.06 23.64C212.06 23.768 212.044 23.896 212.012 24.024C212.012 24.12 212.012 24.232 212.012 24.36C212.012 25.704 212.188 26.92 212.54 28.008C212.924 29.096 213.468 30.072 214.172 30.936C215.644 32.856 217.708 33.816 220.364 33.816C221.772 33.816 223.244 33.448 224.78 32.712C225.484 32.296 226.172 31.816 226.844 31.272C227.548 30.696 228.22 30.04 228.86 29.304ZM212.156 21.816C214.556 21.752 216.924 21.672 219.26 21.576C221.596 21.48 223.964 21.4 226.364 21.336C226.332 19.224 225.676 17.528 224.396 16.248C223.084 14.84 221.436 14.136 219.452 14.136C217.532 14.136 215.852 14.904 214.412 16.44C213.068 17.848 212.316 19.64 212.156 21.816ZM250.182 14.568C250.182 16.232 249.446 17.064 247.974 17.064C247.366 17.064 246.694 16.792 245.958 16.248C245.414 15.8 244.822 15.576 244.182 15.576C243.35 15.576 242.31 16.056 241.062 17.016C240.07 17.784 239.11 18.664 238.182 19.656V31.272C238.182 32.168 238.342 32.76 238.662 33.048C239.014 33.368 239.894 33.528 241.302 33.528V35.064H232.182V33.528C233.014 33.528 233.654 33.464 234.102 33.336C234.55 33.208 234.854 33.016 235.014 32.76C235.174 32.504 235.254 32.104 235.254 31.56V17.544C235.254 16.904 235.142 16.472 234.918 16.248C234.79 16.12 234.518 15.976 234.102 15.816C233.654 15.72 233.11 15.672 232.47 15.672C232.406 15.512 232.358 15.352 232.326 15.192C232.294 15.032 232.246 14.872 232.182 14.712C233.206 14.296 234.214 13.896 235.206 13.512C236.198 13.096 237.19 12.68 238.182 12.264V17.208C238.95 16.472 239.718 15.8 240.486 15.192C241.254 14.584 242.006 14.072 242.742 13.656C244.342 12.728 245.894 12.264 247.398 12.264C249.254 12.264 250.182 13.032 250.182 14.568ZM272.36 29.304C272.52 29.432 272.68 29.56 272.84 29.688C273.032 29.816 273.208 29.944 273.368 30.072C272.6 31.224 271.752 32.184 270.824 32.952C269.896 33.72 268.904 34.36 267.848 34.872C266.408 35.576 264.856 35.928 263.192 35.928C260.024 35.928 257.432 34.92 255.416 32.904C253.272 30.76 252.2 27.864 252.2 24.216C252.2 20.696 253.224 17.864 255.272 15.72C257.288 13.512 259.848 12.408 262.952 12.408C266.056 12.408 268.504 13.304 270.296 15.096C272.216 16.92 273.176 19.56 273.176 23.016C270.2 23.112 267.272 23.224 264.392 23.352C261.512 23.448 258.568 23.544 255.56 23.64C255.56 23.768 255.544 23.896 255.512 24.024C255.512 24.12 255.512 24.232 255.512 24.36C255.512 25.704 255.688 26.92 256.04 28.008C256.424 29.096 256.968 30.072 257.672 30.936C259.144 32.856 261.208 33.816 263.864 33.816C265.272 33.816 266.744 33.448 268.28 32.712C268.984 32.296 269.672 31.816 270.344 31.272C271.048 30.696 271.72 30.04 272.36 29.304ZM255.656 21.816C258.056 21.752 260.424 21.672 262.76 21.576C265.096 21.48 267.464 21.4 269.864 21.336C269.832 19.224 269.176 17.528 267.896 16.248C266.584 14.84 264.936 14.136 262.952 14.136C261.032 14.136 259.352 14.904 257.912 16.44C256.568 17.848 255.816 19.64 255.656 21.816Z" fill="black"/>
</svg>
